PathFileType	4	(X/Y/Z)	/Users/itak/Documents/Research/Walk-IL/dataset/trc/00316_00010.trc
DataRate	CameraRate	NumFrames	NumMarkers	Units	OrigDataRate	OrigDataStartFrame	OrigNumFrames
100.000000	100.000000	4	53	mm	100.000000	135	542
Frame#	Time	RPSI			LPSI			L3			STRN			T10			C7			CLAV			RBAK			LBAK			LSHO			LUPA			LAEL			LAOL			LWTS			LWPS			LFRA			LIFD			LHPS			LHTS			RSHO			RUPA			RAEL			RAOL			RWTS			RWPS			RFRA			RIFD			RHTS			RHPS			RBHD			LFHD			RFHD			LBHD			LHIP			RHIP			RASI			LASI			LKNE			LTHI			LANK			LTIP			LTOE			LMT1			LMT5			LHEE			RKNE			RTHI			RANK			RTIP			RTOE			RMT1			RMT5			RHEE			
		X1	Y1	Z1	X2	Y2	Z2	X3	Y3	Z3	X4	Y4	Z4	X5	Y5	Z5	X6	Y6	Z6	X7	Y7	Z7	X8	Y8	Z8	X9	Y9	Z9	X10	Y10	Z10	X11	Y11	Z11	X12	Y12	Z12	X13	Y13	Z13	X14	Y14	Z14	X15	Y15	Z15	X16	Y16	Z16	X17	Y17	Z17	X18	Y18	Z18	X19	Y19	Z19	X20	Y20	Z20	X21	Y21	Z21	X22	Y22	Z22	X23	Y23	Z23	X24	Y24	Z24	X25	Y25	Z25	X26	Y26	Z26	X27	Y27	Z27	X28	Y28	Z28	X29	Y29	Z29	X30	Y30	Z30	X31	Y31	Z31	X32	Y32	Z32	X33	Y33	Z33	X34	Y34	Z34	X35	Y35	Z35	X36	Y36	Z36	X37	Y37	Z37	X38	Y38	Z38	X39	Y39	Z39	X40	Y40	Z40	X41	Y41	Z41	X42	Y42	Z42	X43	Y43	Z43	X44	Y44	Z44	X45	Y45	Z45	X46	Y46	Z46	X47	Y47	Z47	X48	Y48	Z48	X49	Y49	Z49	X50	Y50	Z50	X51	Y51	Z51	X52	Y52	Z52	X53	Y53	Z53	

136	1.35	-915.2618408203125	975.098876953125	-590.1827392578125	-862.177734375	961.1024780273438	-757.203369140625	-866.9548950195312	1047.395141601562	-658.28369140625	-605.2980346679688	1193.557006835938	-599.748046875	-870.80126953125	1167.254516601562	-650.1883544921875	-790.3460083007812	1402.632934570312	-648.8291015625	-651.6682739257812	1301.061889648438	-615.2188720703125	-877.3916015625	1276.293823242188	-585.523193359375	-789.8576049804688	1370.026000976562	-754.380859375	-691.0531005859375	1367.058715820312	-791.122314453125	-740.396240234375	1269.783081054688	-874.1943969726562	-808.5167236328125	1081.176025390625	-905.0349731445312	-869.756103515625	1084.536987304688	-843.3470458984375	-810.9779663085938	841.234375	-877.156494140625	-847.0252075195312	846.4312133789062	-940.3136596679688	-831.29931640625	979.3688354492188	-924.26123046875	-869.1220703125	667.1798706054688	-896.6412353515625	-873.7666015625	762.357421875	-943.9315795898438	-824.5913696289062	742.7796020507812	-904.8042602539062	-756.47314453125	1369.97314453125	-479.304931640625	-778.542236328125	1311.676025390625	-414.4581298828125	-780.5863647460938	1040.02685546875	-359.8260192871094	-814.9808349609375	1029.869140625	-446.8516845703125	-582.7486572265625	946.76318359375	-474.7048645019531	-596.8017578125	894.057861328125	-409.0454406738281	-725.5465698242188	990.9776000976562	-362.9785461425781	-456.6630249023438	822.1488647460938	-537.1341552734375	-483.0439453125	881.3765869140625	-495.7545776367188	-509.9493408203125	834.3756103515625	-449.9725341796875	-752.0677490234375	1555.1474609375	-584.4105834960938	-551.2591552734375	1558.097534179688	-653.1326904296875	-576.8738403320312	1561.971313476562	-564.1546020507812	-712.0271606445312	1539.232543945312	-723.7538452148438	-762.943115234375	915.5975952148438	-825.0125732421875	-855.083251953125	916.8134765625	-461.4434509277344	-717.0286865234375	909.30908203125	-488.2178344726562	-652.4444580078125	920.0696411132812	-730.6546630859375	-536.061279296875	501.3821105957031	-721.9696655273438	-597.521484375	623.2926025390625	-771.7282104492188	-458.584228515625	53.10469818115234	-705.7944946289062	-493.3033447265625	273.7195129394531	-726.330810546875	-316.5132751464844	116.3161697387695	-563.1549072265625	-387.2698974609375	79.91728210449219	-556.626220703125	-350.319580078125	86.51968383789062	-661.272216796875	-524.691650390625	35.44204330444336	-672.738525390625	-883.9818725585938	446.2093200683594	-528.6485595703125	-822.2988891601562	698.8342895507812	-466.2151184082031	-1071.24365234375	48.34970092773438	-618.372802734375	-906.11865234375	325.1814270019531	-559.3117065429688	-873.9652709960938	43.9388542175293	-650.4193725585938	-927.5253295898438	39.84405899047852	-696.1484375	-969.513671875	36.68439865112305	-585.2783813476562	-1119.758422851562	48.28418350219727	-670.6475830078125	
137	1.36	-907.969482421875	973.74560546875	-588.9026489257812	-855.2273559570312	959.6366577148438	-756.0206909179688	-859.8909301757812	1045.788452148438	-656.9603881835938	-598.4070434570312	1192.133422851562	-599.275634765625	-864.0512084960938	1165.424682617188	-648.7774658203125	-784.0609741210938	1400.929931640625	-647.9321899414062	-644.8958129882812	1299.62744140625	-614.70947265625	-870.6316528320312	1274.566040039062	-584.19091796875	-783.8693237304688	1368.155639648438	-753.4041748046875	-685.170654296875	1365.282836914062	-790.564697265625	-735.343017578125	1268.31494140625	-873.337646484375	-804.8885498046875	1080.199951171875	-903.6079711914062	-865.4297485351562	1083.7470703125	-841.2178955078125	-809.482421875	839.9091796875	-876.4283447265625	-845.9465942382812	845.869140625	-939.1781616210938	-828.7203369140625	978.5941162109375	-922.8869018554688	-869.7319946289062	666.4048461914062	-895.832763671875	-873.6856689453125	762.1373291015625	-942.8203125	-822.4832153320312	743.3816528320312	-904.9224853515625	-749.4259643554688	1368.524780273438	-478.4493103027344	-771.2273559570312	1310.212890625	-413.4922790527344	-772.5799560546875	1038.48681640625	-358.9772644042969	-807.4594116210938	1028.320556640625	-445.9230041503906	-574.41015625	949.6754760742188	-475.9928283691406	-586.9326782226562	896.1259765625	-410.7556762695312	-717.2178955078125	990.2190551757812	-362.7239990234375	-446.5383911132812	828.2855224609375	-540.9190063476562	-473.6983337402344	886.4147338867188	-498.6071472167969	-499.3580017089844	838.403076171875	-453.1532287597656	-745.6539916992188	1553.552490234375	-583.7412109375	-544.967041015625	1556.673706054688	-652.7660522460938	-570.407958984375	1560.452514648438	-563.7471313476562	-705.8372192382812	1537.757446289062	-723.1670532226562	-756.0191040039062	914.0421142578125	-823.9099731445312	-847.83349609375	915.3795166015625	-460.20263671875	-709.8547973632812	907.5210571289062	-487.0233154296875	-645.4232788085938	918.4171142578125	-729.6005249023438	-528.9259643554688	500.1269226074219	-720.8696899414062	-590.54833984375	621.7964477539062	-770.8436889648438	-448.2738037109375	52.43655395507812	-702.9796142578125	-484.7208557128906	272.8391418457031	-724.2979736328125	-306.8792724609375	117.1282119750977	-560.33349609375	-377.4417724609375	80.32894897460938	-553.5630493164062	-340.2750549316406	86.70343017578125	-658.4153442382812	-514.1378784179688	34.38467407226562	-669.9618530273438	-880.654541015625	445.4007568359375	-528.1375122070312	-816.6365966796875	697.374267578125	-465.2354736328125	-1070.9111328125	48.86870193481445	-618.1111450195312	-903.8143310546875	324.6631164550781	-558.96337890625	-873.913818359375	43.88660049438477	-650.4517211914062	-927.5064697265625	39.93720245361328	-696.1181640625	-969.4223022460938	36.73675537109375	-585.2136840820312	-1119.742431640625	49.52225494384766	-670.2954711914062	
138	1.37	-900.44140625	972.4193725585938	-587.5794677734375	-848.0795288085938	958.1915283203125	-754.8104248046875	-852.6018676757812	1044.20166015625	-655.5963745117188	-591.325927734375	1190.761474609375	-598.809814453125	-857.0858154296875	1163.617919921875	-647.3485107421875	-777.5862426757812	1399.266235351562	-647.0570068359375	-637.9267578125	1298.253540039062	-614.2195434570312	-863.6636352539062	1272.868408203125	-582.8519287109375	-777.6914672851562	1366.309814453125	-752.4525146484375	-679.0769653320312	1363.5283203125	-790.0165405273438	-730.0056762695312	1266.819946289062	-872.4599609375	-800.9463500976562	1079.189697265625	-902.1519165039062	-860.74853515625	1082.89794921875	-839.0782470703125	-807.5551147460938	838.5859985351562	-875.649658203125	-844.4727172851562	845.2774658203125	-937.9600219726562	-825.7771606445312	977.78515625	-921.46630859375	-870.0105590820312	665.7470703125	-894.8443603515625	-873.203369140625	761.8929443359375	-941.5892944335938	-818.9036865234375	744.7211303710938	-905.2931518554688	-742.1650390625	1367.140625	-477.6141357421875	-763.6972045898438	1308.819458007812	-412.5384216308594	-764.3560180664062	1037.003784179688	-358.1707153320312	-799.7044067382812	1026.844604492188	-445.02734375	-566.0512084960938	952.2783203125	-477.2488098144531	-577.1360473632812	897.969482421875	-412.4232482910156	-708.722412109375	989.4551391601562	-362.5002746582031	-436.6769714355469	833.9120483398438	-544.5521850585938	-464.5027770996094	890.9854125976562	-501.3538513183594	-488.9691162109375	842.0785522460938	-456.2250061035156	-739.1116943359375	1552.001220703125	-583.1220092773438	-538.5833129882812	1555.360595703125	-652.4639892578125	-563.8333740234375	1559.066772460938	-563.39892578125	-699.5609741210938	1536.30859375	-722.6336669921875	-748.9300537109375	912.4954833984375	-822.7962646484375	-840.2903442382812	913.9479370117188	-458.9346618652344	-702.4279174804688	905.7665405273438	-485.8478088378906	-638.1740112304688	916.7964477539062	-728.5979614257812	-521.6144409179688	498.9014587402344	-719.7062377929688	-583.4760131835938	620.2581787109375	-769.9161987304688	-439.0788879394531	51.57331848144531	-700.5396728515625	-476.5515747070312	271.8226013183594	-722.40478515625	-298.2038879394531	117.0945587158203	-557.814453125	-368.6903381347656	80.09771728515625	-550.8612060546875	-331.2374877929688	86.28787231445312	-655.9010009765625	-504.7790222167969	33.32427978515625	-667.6049194335938	-877.232177734375	444.6926879882812	-527.60595703125	-810.7782592773438	695.9544677734375	-464.2308044433594	-1070.497680664062	49.50917816162109	-617.7814331054688	-901.4542846679688	324.2484741210938	-558.5770263671875	-873.8291015625	43.82039642333984	-650.48046875	-927.4629516601562	40.06870651245117	-696.062744140625	-969.3009643554688	36.80305480957031	-585.1224975585938	-1119.69921875	50.94673919677734	-669.8824462890625	
139	1.38	-892.6777954101562	971.1351928710938	-586.227783203125	-840.7119140625	956.7731323242188	-753.581787109375	-845.0869140625	1042.644653320312	-654.1928100585938	-584.0607299804688	1189.454711914062	-598.3472290039062	-849.8997192382812	1161.845703125	-645.9004516601562	-770.9133911132812	1397.656860351562	-646.2006225585938	-630.7590942382812	1296.952514648438	-613.74560546875	-856.482177734375	1271.21240234375	-581.5057373046875	-771.3192749023438	1364.500122070312	-751.5243530273438	-672.7769775390625	1361.80517578125	-789.4794311523438	-724.3689575195312	1265.299438476562	-871.5630493164062	-796.6542358398438	1078.1435546875	-900.6727905273438	-855.69677734375	1081.988403320312	-836.94140625	-805.1666259765625	837.2710571289062	-874.8055419921875	-842.5679931640625	844.6512451171875	-936.6635131835938	-822.4427490234375	976.939697265625	-920.0078125	-869.9090576171875	665.1966552734375	-893.6843872070312	-872.2760620117188	761.6170654296875	-940.2406005859375	-813.864013671875	746.7368774414062	-905.907958984375	-734.6976928710938	1365.836547851562	-476.7987670898438	-755.9535522460938	1307.509887695312	-411.5921325683594	-755.9278564453125	1035.592895507812	-357.4014587402344	-791.724609375	1025.456298828125	-444.1576843261719	-557.6596069335938	954.563232421875	-478.4617309570312	-567.4072265625	899.5756225585938	-414.0250244140625	-700.0548095703125	988.704833984375	-362.3055725097656	-427.0603332519531	838.9817504882812	-548.0225830078125	-455.4371337890625	895.0615234375	-503.9822387695312	-478.7717590332031	845.369873046875	-459.1704406738281	-732.4551391601562	1550.5068359375	-582.5562744140625	-532.098388671875	1554.173950195312	-652.2103271484375	-557.1683349609375	1557.8291015625	-563.1015625	-693.1841430664062	1534.894653320312	-722.1470947265625	-741.6533203125	910.9605102539062	-821.6760864257812	-832.4674072265625	912.538818359375	-457.6473388671875	-694.7328491210938	904.0713500976562	-484.6875915527344	-630.7088012695312	915.2139892578125	-727.6305541992188	-514.112548828125	497.7132873535156	-718.4642333984375	-576.2880859375	618.6754150390625	-768.93701171875	-431.1159973144531	50.5255126953125	-698.463134765625	-468.8391418457031	270.6587829589844	-720.6381225585938	-290.5070495605469	116.1285400390625	-555.6390380859375	-361.0321655273438	79.16221618652344	-548.5647583007812	-323.2767639160156	85.20059967041016	-653.7538452148438	-496.7663879394531	32.32818222045898	-665.642333984375	-873.6930541992188	444.0988464355469	-527.0548095703125	-804.705810546875	694.5881958007812	-463.2002563476562	-1070.021728515625	50.30863189697266	-617.3875732421875	-899.0226440429688	323.9461364746094	-558.1490478515625	-873.71337890625	43.74190902709961	-650.5027465820312	-927.3923950195312	40.24255752563477	-695.9838256835938	-969.1378173828125	36.88806533813477	-585.0022583007812	-1119.60302734375	52.57583999633789	-669.4039306640625	
